PathFileType	4	(X/Y/Z)	Kaydara																																																																																																																									
DataRate	CameraRate	NumFrames	NumMarkers	Units	OrigDataRate	OrigDataStartFrame	OrigNumFrames																																																																																																																					
30	30	6	41	mm	30	42	167																																																																																																																					
Frame#	Time	PAIB_LFHD			PAIB_RFHD			PAIB_LBHD			PAIB_RBHD			PAIB_LFTShould			PAIB_RFTShould			PAIB_LRRShould			PAIB_RRRShould			PAIB_T10			PAIB_STRN			PAIB_TRUN			PAIB_LSHO			PAIB_LUPA			PAIB_LELB			PAIB_LFRM			PAIB_LWRA			PAIB_LWRB			PAIB_LFIN			PAIB_RSHO			PAIB_RUPA			PAIB_RELB			PAIB_RFRM			PAIB_RWRA			PAIB_RWRB			PAIB_RFIN			PAIB_LFWT			PAIB_RFWT			PAIB_LBWT			PAIB_RBWT			PAIB_LTHI			PAIB_LKNE			PAIB_LSHN			PAIB_LANK			PAIB_LHEE			PAIB_LTOE			PAIB_RTHI			PAIB_RKNE			PAIB_RSHN			PAIB_RANK			PAIB_RHEE			PAIB_RTOE		
		X1	Y1	Z1	X2	Y2	Z2	X3	Y3	Z3	X4	Y4	Z4	X5	Y5	Z5	X6	Y6	Z6	X7	Y7	Z7	X8	Y8	Z8	X9	Y9	Z9	X10	Y10	Z10	X11	Y11	Z11	X12	Y12	Z12	X13	Y13	Z13	X14	Y14	Z14	X15	Y15	Z15	X16	Y16	Z16	X17	Y17	Z17	X18	Y18	Z18	X19	Y19	Z19	X20	Y20	Z20	X21	Y21	Z21	X22	Y22	Z22	X23	Y23	Z23	X24	Y24	Z24	X25	Y25	Z25	X26	Y26	Z26	X27	Y27	Z27	X28	Y28	Z28	X29	Y29	Z29	X30	Y30	Z30	X31	Y31	Z31	X32	Y32	Z32	X33	Y33	Z33	X34	Y34	Z34	X35	Y35	Z35	X36	Y36	Z36	X37	Y37	Z37	X38	Y38	Z38	X39	Y39	Z39	X40	Y40	Z40	X41	Y41	Z41
																																																																																																																												
42	1.377	239.30351	1699.42596	-1972.32498	53.92349	1700.3688	-1985.97885	255.71619	1661.75552	-2097.34909	52.79437	1674.25049	-2099.09531	213.75673	1434.82269	-1972.62955	90.31175	1429.80759	-1978.43765	225.92943	1487.19055	-2121.56113	72.6736	1484.57428	-2116.93588	151.85348	1321.01837	-2187.62619	160.10054	1370.31525	-1931.21231	160.17868	1271.22612	-1900.63675	347.04826	1439.70245	-2051.38504	400.94692	1211.49406	-2055.46097	413.10421	1127.83272	-2096.43875	440.99499	1015.96832	-2053.86475	400.23369	905.24849	-1955.98282	428.84579	884.09958	-2025.92789	451.11717	851.78932	-1963.65463	-37.54278	1426.04584	-2037.54639	-95.82644	1249.08829	-2075.36575	-115.54792	1133.08578	-2080.93658	-141.54661	998.59222	-2053.79868	-103.3133	891.75194	-1949.64432	-162.11319	880.55962	-2008.34229	-166.47173	845.07027	-1941.91849	268.74557	967.98019	-1931.83075	32.0238	970.64148	-1931.03622	207.02076	1028.38173	-2144.0274	62.69948	1031.54846	-2139.76379	254.42913	750.76973	-2152.81235	285.63414	501.79005	-2072.5296	265.70873	312.50685	-2072.38388	264.82632	128.33338	-2162.02835	209.36153	119.64136	-2208.58093	252.55056	74.82964	-1987.17636	3.75894	732.85385	-2147.1106	-1.08752	487.79968	-2080.46799	56.91175	303.54811	-2071.9577	27.65411	106.19074	-2163.68866	90.27764	113.52506	-2213.3667	42.18255	76.79474	-1989.95102
43	1.41	239.2676	1699.50272	-1971.43478	53.98015	1700.45624	-1985.19073	255.73381	1661.44989	-2096.3147	52.83202	1674.06693	-2098.17169	213.87711	1434.59549	-1972.10724	90.28462	1429.53247	-1977.82715	225.91839	1487.29782	-2120.86182	72.69711	1484.58099	-2116.14944	151.76944	1321.25168	-2187.05643	160.35885	1370.00763	-1930.72235	160.32167	1270.8622	-1900.28198	347.23324	1439.7081	-2051.09207	401.03008	1211.37589	-2055.16113	413.2206	1127.79274	-2096.39282	440.94582	1015.86227	-2053.73779	399.94408	905.28191	-1955.87982	428.60802	884.04373	-2025.80566	450.70358	851.67252	-1963.45612	-37.54576	1425.97321	-2036.87561	-95.84132	1249.08127	-2074.94186	-115.58529	1132.97363	-2080.44189	-141.43303	998.52859	-2053.30444	-102.90586	891.68068	-1949.18808	-161.86567	880.58784	-2008.09235	-165.91259	844.98131	-1941.3736	268.85326	967.8273	-1932.35413	32.17202	970.61768	-1931.01913	207.0084	1028.52501	-2144.15771	62.65028	1031.75095	-2139.73389	254.40342	750.72495	-2153.19458	285.78018	501.69807	-2072.60162	265.84589	312.43633	-2072.33841	264.91827	128.24671	-2161.97556	209.43102	119.54102	-2208.63434	252.55167	74.83115	-1987.2319	3.91044	733.12576	-2147.6355	-1.51709	488.00907	-2081.27365	56.73836	303.62543	-2072.08649	27.55407	106.14189	-2163.74557	90.22898	113.50813	-2213.39996	42.0897	76.78553	-1989.99512
44	1.443	239.22934	1699.63654	-1970.50964	53.97563	1700.43808	-1984.30893	255.70347	1661.26328	-2095.1622	52.8984	1673.76953	-2097.24884	214.13124	1434.41757	-1971.25107	90.6281	1429.22791	-1976.60904	225.93891	1487.37442	-2119.76242	72.70754	1484.67667	-2115.02151	151.80832	1321.57516	-2186.54678	160.5228	1369.64752	-1929.97208	160.51781	1270.4425	-1899.85931	347.45758	1439.55978	-2050.20157	401.12785	1211.39694	-2055.07233	413.33923	1127.66174	-2096.21735	440.88589	1015.66177	-2053.61877	399.57916	905.11406	-1955.79865	428.30624	883.86444	-2025.68787	450.35389	851.5226	-1963.30078	-37.43264	1425.75577	-2035.85739	-95.84964	1248.9167	-2074.04968	-115.5522	1132.93686	-2079.87274	-141.26072	998.30856	-2052.73346	-102.3043	891.33186	-1948.85757	-161.40715	880.0502	-2007.37396	-165.41849	844.64836	-1940.88623	268.77771	967.79762	-1932.87674	32.1981	970.58197	-1931.20422	206.86268	1028.53294	-2144.34769	62.49098	1031.847	-2139.83459	254.53644	750.61623	-2153.4346	286.24338	501.87725	-2072.39563	266.15929	312.20106	-2072.24594	265.34737	128.1915	-2162.03293	209.91198	119.37817	-2208.80508	252.5609	74.85813	-1987.34329	3.99769	733.30902	-2147.93564	-1.81533	488.21396	-2080.79117	56.47054	303.44048	-2071.76208	27.39133	106.22594	-2163.84644	90.09398	113.44276	-2213.40927	41.96473	76.921	-1990.22522
45	1.477	239.24494	1699.50043	-1969.28833	54.07168	1700.27618	-1983.16956	255.8548	1661.07437	-2094.06738	53.07508	1673.43842	-2096.11008	213.64098	1433.80554	-1969.42719	90.56911	1428.88382	-1975.69458	225.91562	1487.34497	-2118.45627	72.70146	1484.68582	-2113.75702	151.69674	1321.87576	-2185.93063	160.58825	1369.15359	-1929.12918	160.50108	1269.8922	-1899.27505	347.3521	1439.26636	-2049.24271	401.34708	1211.44699	-2054.86404	413.33977	1127.47818	-2095.84076	440.70892	1015.36392	-2053.31345	399.10564	904.85855	-1955.57175	427.92732	883.53409	-2025.47668	449.99653	851.22169	-1963.19351	-37.42779	1425.50491	-2034.64783	-95.79414	1248.71353	-2072.90451	-115.42882	1132.68517	-2078.85147	-141.09098	998.06099	-2051.93649	-101.58447	890.86304	-1948.37357	-160.94906	879.60648	-2006.74026	-164.83795	844.15878	-1940.36713	268.50018	967.67647	-1933.5463	31.92679	970.42137	-1931.76025	206.50858	1028.61603	-2144.6637	62.13433	1031.88438	-2139.89777	255.05123	750.53726	-2153.44116	287.16606	502.37473	-2071.69174	266.84566	311.81356	-2071.70227	266.19093	128.06183	-2162.14127	210.54485	119.22029	-2208.87207	252.70527	74.93806	-1987.73727	3.5976	732.93457	-2147.68417	-1.96648	487.98309	-2078.55591	56.72133	302.85439	-2070.05203	26.81168	106.25152	-2163.52692	89.74171	113.35404	-2213.41873	42.04384	77.58634	-1990.91476
46	1.51	239.32453	1699.60999	-1967.64923	54.15116	1700.41962	-1981.58051	255.86782	1661.13632	-2092.34818	53.1488	1673.62366	-2094.56787	213.40996	1433.47733	-1967.70401	90.36098	1428.61542	-1973.91739	225.76103	1487.4353	-2116.71555	72.42636	1484.87289	-2111.92093	151.28891	1322.3204	-2184.5871	160.40646	1368.59406	-1927.80167	160.30764	1269.20822	-1898.33221	347.3024	1439.09485	-2048.29147	400.88787	1210.65536	-2053.44559	413.18005	1127.14676	-2094.97116	440.37468	1014.89388	-2052.58987	398.51585	904.25003	-1955.21332	427.53777	883.05504	-2025.12527	449.41479	850.5864	-1962.84012	-37.64803	1425.34393	-2033.01727	-95.93668	1248.52661	-2071.66168	-115.39462	1132.43729	-2077.77512	-140.85518	997.80853	-2051.19675	-101.26225	890.62462	-1947.89673	-160.47028	879.21371	-2006.21246	-164.25278	843.61069	-1939.85855	267.939	967.79495	-1934.26407	31.55957	970.38612	-1932.80731	205.9086	1029.39491	-2145.1004	61.43102	1032.49062	-2140.30441	255.62428	750.25078	-2153.41995	287.934	503.18367	-2069.59717	267.29919	311.42513	-2070.08469	267.25002	128.0926	-2161.86844	211.60555	119.37777	-2208.89694	252.91233	74.99242	-1988.12714	2.58279	731.41869	-2146.25824	-1.2052	487.23709	-2073.48633	58.61003	301.68741	-2066.35086	26.72418	106.37261	-2162.72552	89.92563	113.55855	-2212.85614	42.68967	78.71036	-1991.63971
47	1.543	239.25495	1699.75662	-1965.39307	54.01645	1700.65994	-1979.24591	255.71972	1661.21674	-2090.16953	52.94348	1673.82935	-2092.21848	212.79106	1433.07144	-1965.12146	89.92002	1428.41492	-1971.49307	225.22257	1487.77328	-2114.0802	71.99745	1485.3389	-2109.17511	150.624	1323.17474	-2182.73727	159.94664	1368.0867	-1925.74677	159.82188	1268.54782	-1896.7804	346.70609	1438.59589	-2045.8934	400.25879	1210.48401	-2052.20352	412.47772	1126.9162	-2093.71246	439.66599	1014.57245	-2051.63361	397.62981	903.69331	-1954.53888	426.77593	882.67647	-2024.55246	448.43918	849.93996	-1962.16095	-38.13278	1425.43625	-2030.65811	-96.17245	1248.70461	-2069.96811	-115.51905	1132.59689	-2076.62354	-140.64659	997.80243	-2050.3743	-100.79521	890.42168	-1947.44171	-159.9616	879.07852	-2005.7576	-163.71422	843.27248	-1939.45541	267.1665	968.32863	-1935.08713	30.9391	970.39764	-1933.40073	204.75033	1030.02235	-2145.35934	60.34986	1032.78587	-2140.55084	254.67524	750.50484	-2153.44223	287.20322	503.83457	-2066.11023	266.87363	310.94097	-2067.30515	268.0357	128.03308	-2161.57272	212.46813	119.72983	-2208.75	253.14688	75.22208	-1988.52203	1.97018	729.10622	-2143.92242	0.29572	486.07792	-2065.02213	59.65802	300.29884	-2061.98837	27.05029	106.81735	-2161.7424	90.36228	113.91897	-2212.05231	43.72888	80.23988	-1992.32635
